<svg xmlns="http://www.w3.org/2000/svg" width="21" height="17"><path d="M20.51 14.13h-2.406v2.393a.478.478 0 01-.482.474H.469a.478.478 0 01-.482-.474V4.321c0-.261.216-.473.482-.473h2.407V1.455c0-.262.215-.474.481-.474H20.51c.266 0 .482.212.482.474v12.202a.478.478 0 01-.482.473zm-18.056.821c.03-.656.179-1.539.422-2.457V5.118H1.281v10.608H16.81V14.13h-1.438c.117.332.207.623.265.825l-13.183-.004zM19.698 2.252H4.169V12.86h15.529V2.252zM10.924 6.52c.77 1.085 1.441 2.043 2.006 2.646.93.914 1.725-.471 2.7-.927 1.422-.665 2.593 2.792 2.895 3.849l-13.183-.003c.083-1.801 1.042-5.299 2.437-6.588 1.249-1.145 2.311-.143 3.145 1.023zm4.645-.313c-.895 0-1.621-.713-1.621-1.592 0-.879.726-1.592 1.621-1.592s1.621.713 1.621 1.592c0 .879-.726 1.592-1.621 1.592z"/></svg>