<svg xmlns="http://www.w3.org/2000/svg" width="22" height="16"><path d="M19.081 15.994H2.919a2.915 2.915 0 01-2.91-2.913V4.576a2.913 2.913 0 012.653-2.901c.13-.556.492-.935.924-.935h2.097c.43 0 .789.374.921.922H9.57l1.437-1.66h4.911l1.769 1.66h1.394a2.914 2.914 0 012.908 2.914v8.505a2.914 2.914 0 01-2.908 2.913zM2.641 6.513a.55.55 0 00-1.1 0v5.807a.55.55 0 001.1 0V6.513zm3.308-3.042a.58.58 0 00-.58-.581H3.878c-.32 0-.581.26-.581.581v.342c0 .32.261.58.581.58h1.491c.319 0 .58-.26.58-.58v-.342zm7.792.779a4.658 4.658 0 00-4.65 4.655 4.658 4.658 0 004.65 4.655 4.657 4.657 0 004.648-4.655 4.657 4.657 0 00-4.648-4.655zm0 7.918a3.265 3.265 0 01-3.259-3.263 3.264 3.264 0 013.259-3.262 3.263 3.263 0 010 6.525z"/></svg>