<svg xmlns="http://www.w3.org/2000/svg" width="15" height="15"><path d="M13.977 12.501l-2.794-2.794a5.583 5.583 0 001.01-3.251c0-.777-.151-1.519-.452-2.228a5.742 5.742 0 00-1.222-1.833 5.75 5.75 0 00-1.833-1.223A5.647 5.647 0 006.457.72c-.777 0-1.519.151-2.228.452a5.729 5.729 0 00-1.833 1.223 5.729 5.729 0 00-1.223 1.833 5.642 5.642 0 00-.452 2.228c0 .777.151 1.52.452 2.229a5.75 5.75 0 001.223 1.833c.513.513 1.124.92 1.833 1.222a5.624 5.624 0 002.228.452 5.575 5.575 0 003.251-1.01l2.794 2.786a.97.97 0 00.734.309c.282 0 .527-.103.733-.309.206-.206.309-.451.309-.733a.995.995 0 00-.301-.734zM9.036 9.035c-.715.714-1.574 1.071-2.579 1.071-1.005 0-1.864-.357-2.578-1.071-.715-.715-1.072-1.574-1.072-2.579 0-1.005.357-1.864 1.072-2.578.714-.715 1.573-1.072 2.578-1.072s1.864.357 2.579 1.072c.714.714 1.071 1.573 1.071 2.578S9.75 8.32 9.036 9.035z"/></svg>