<svg xmlns="http://www.w3.org/2000/svg" width="41" height="40"><path d="M35.223 15.061l-.194-.07-.754-1.807.082-.185c2.286-5.201 2.128-5.356 1.749-5.733l-3.048-2.985a.815.815 0 00-.533-.211c-.171 0-.69 0-5.192 2.046l-.181.081-1.856-.75-.075-.186c-2.117-5.26-2.334-5.26-2.86-5.26h-4.305c-.525 0-.764 0-2.727 5.27l-.074.192-1.847.756-.177-.074c-3.047-1.29-4.826-1.944-5.29-1.944a.815.815 0 00-.533.209L4.357 7.403c-.387.383-.547.543 1.858 5.636l.088.189-.756 1.805-.185.072C-.002 17.186-.002 17.388-.002 17.93v4.233c0 .543 0 .769 5.375 2.703l.192.068.756 1.8-.081.184c-2.285 5.203-2.14 5.343-1.751 5.732l3.043 2.989a.839.839 0 00.537.211c.17 0 .688 0 5.193-2.046l.18-.085 1.859.755.072.187c2.118 5.259 2.336 5.259 2.863 5.259h4.306c.541 0 .764 0 2.729-5.274l.074-.192 1.849-.751.177.072c3.045 1.293 4.822 1.945 5.283 1.945a.813.813 0 00.536-.208l3.056-2.999c.384-.385.544-.543-1.865-5.63l-.09-.191.754-1.798.181-.07c5.373-2.092 5.373-2.296 5.373-2.839v-4.23c0-.544 0-.768-5.376-2.694zM20.298 26.826c-3.846 0-6.976-3.081-6.976-6.866 0-3.783 3.13-6.86 6.976-6.86 3.845 0 6.975 3.077 6.975 6.86 0 3.784-3.13 6.866-6.975 6.866z"/></svg>