<svg xmlns="http://www.w3.org/2000/svg" width="25" height="41"><path d="M21.74 40.994H3.269c-1.799 0-3.26-1.438-3.26-3.207V4.101c0-1.77 1.461-3.209 3.26-3.209H21.74c1.798 0 3.259 1.439 3.259 3.209v33.686c0 1.769-1.461 3.207-3.259 3.207zm-9.236-1.203c.973 0 1.766-.78 1.766-1.737 0-.957-.793-1.738-1.766-1.738-.972 0-1.766.781-1.766 1.738s.794 1.737 1.766 1.737zm2.988-35.969a.796.796 0 00-.804-.791h-4.367a.796.796 0 00-.804.791v.022c0 .438.358.791.804.791h4.367a.796.796 0 00.804-.791v-.022zm6.791 3.487a.54.54 0 00-.543-.535H3.269a.54.54 0 00-.543.535v27.269a.54.54 0 00.543.534H21.74a.54.54 0 00.543-.534V7.309zm-2.711 25.13H5.437a.533.533 0 01-.538-.529v-.011c0-.293.24-.529.538-.529h14.135c.298 0 .538.236.538.529v.011a.534.534 0 01-.538.529zm0-3.208H5.437a.533.533 0 01-.538-.53v-.01c0-.292.24-.529.538-.529h14.135c.298 0 .538.237.538.529v.01c0 .293-.241.53-.538.53zm0-3.208H5.437a.533.533 0 01-.538-.53v-.01c0-.293.24-.529.538-.529h14.135c.298 0 .538.236.538.529v.01c0 .293-.241.53-.538.53zm0-3.208H5.437a.533.533 0 01-.538-.53v-.01c0-.293.24-.53.538-.53h14.135c.298 0 .538.237.538.53v.01c0 .293-.241.53-.538.53zm0-3.209H5.437a.532.532 0 01-.538-.529v-.011c0-.292.24-.529.538-.529h14.135c.298 0 .538.237.538.529v.011a.533.533 0 01-.538.529zm-.005-6.951h-1.629a.539.539 0 01-.544-.534v-1.604a.54.54 0 01.544-.535h1.629c.3 0 .543.24.543.535v1.604a.54.54 0 01-.543.534zm-4.346.001h-1.63a.54.54 0 01-.543-.535v-1.604a.54.54 0 01.543-.534h1.63c.299 0 .542.239.542.534v1.604a.54.54 0 01-.542.535zm-3.803 0h-1.63a.54.54 0 01-.543-.535v-1.604a.54.54 0 01.543-.534h1.63c.3 0 .543.239.543.534v1.604a.54.54 0 01-.543.535zm-4.346 0h-1.63a.54.54 0 01-.543-.535v-1.604c0-.295.243-.534.543-.534h1.63a.54.54 0 01.543.534v1.604a.54.54 0 01-.543.535zm-1.635 2.673h9.246c.297 0 .538.237.538.53v.01c0 .293-.241.53-.538.53H5.437a.533.533 0 01-.538-.53v-.01c0-.293.24-.53.538-.53z"/></svg>