<svg xmlns="http://www.w3.org/2000/svg" width="18" height="20"><path d="M1.205 20h15.59c.664 0 1.207-.574 1.207-1.274V1.273c0-.7-.543-1.274-1.207-1.274H1.205c-.666 0-1.208.574-1.208 1.274v17.453c0 .7.542 1.274 1.208 1.274zM15.057 1.557c0-.211.165-.382.363-.382h1.131c.2 0 .362.171.362.382v1.23a.373.373 0 01-.362.383H15.42a.375.375 0 01-.363-.383v-1.23zm0 3.131c0-.212.165-.383.363-.383h1.131c.2 0 .362.171.362.383v1.23a.373.373 0 01-.362.383H15.42a.375.375 0 01-.363-.383v-1.23zm0 3.132c0-.211.165-.383.363-.383h1.131c.2 0 .362.172.362.383v1.231c0 .209-.162.382-.362.382H15.42a.376.376 0 01-.363-.382V7.82zm0 3.13c0-.211.165-.383.363-.383h1.131c.2 0 .362.172.362.383v1.231a.373.373 0 01-.362.383H15.42a.375.375 0 01-.363-.383V10.95zm0 3.131c0-.211.165-.383.363-.383h1.131c.2 0 .362.172.362.383v1.231c0 .21-.162.381-.362.381H15.42a.374.374 0 01-.363-.381v-1.231zm0 3.13c0-.21.165-.382.363-.382h1.131c.2 0 .362.172.362.382v1.233a.373.373 0 01-.362.381H15.42a.374.374 0 01-.363-.381v-1.233zM4.183 2.481c0-.212.163-.382.363-.382h8.908c.198 0 .362.17.362.382v6.093c0 .21-.164.383-.362.383H4.546a.375.375 0 01-.363-.383V2.481zm0 9.396c0-.21.163-.381.363-.381h8.908c.198 0 .362.171.362.381v5.633c0 .21-.164.382-.362.382H4.546a.374.374 0 01-.363-.382v-5.633zM1.086 1.557c0-.211.162-.382.362-.382H2.58c.199 0 .361.171.361.382v1.23c0 .212-.162.383-.361.383H1.448a.373.373 0 01-.362-.383v-1.23zm0 3.131c0-.212.162-.383.362-.383H2.58c.199 0 .361.171.361.383v1.23c0 .211-.162.383-.361.383H1.448a.373.373 0 01-.362-.383v-1.23zm0 3.132c0-.211.162-.383.362-.383H2.58c.199 0 .361.172.361.383v1.231c0 .209-.162.382-.361.382H1.448c-.2 0-.362-.173-.362-.382V7.82zm0 3.13c0-.211.162-.383.362-.383H2.58c.199 0 .361.172.361.383v1.231c0 .212-.162.383-.361.383H1.448a.373.373 0 01-.362-.383V10.95zm0 3.131c0-.211.162-.383.362-.383H2.58c.199 0 .361.172.361.383v1.231c0 .21-.162.381-.361.381H1.448a.372.372 0 01-.362-.381v-1.231zm0 3.13c0-.21.162-.382.362-.382H2.58c.199 0 .361.172.361.382v1.233a.373.373 0 01-.361.381H1.448a.372.372 0 01-.362-.381v-1.233z"/></svg>