<?xml version="1.0" encoding="utf-8"?>
<!-- Generator: Adobe Illustrator 15.0.0, SVG Export Plug-In . SVG Version: 6.00 Build 0)  -->
<!DOCTYPE svg PUBLIC "-//W3C//DTD SVG 1.1//EN" "http://www.w3.org/Graphics/SVG/1.1/DTD/svg11.dtd">
<svg version="1.1" id="Слой_1" xmlns="http://www.w3.org/2000/svg" xmlns:xlink="http://www.w3.org/1999/xlink" x="0px" y="0px"
	 width="20px" height="20px" viewBox="0 0 20 20" enable-background="new 0 0 20 20" xml:space="preserve">
<radialGradient id="SVGID_1_" cx="528.0186" cy="142.3887" r="14.8514" fx="520.9677" fy="136.2616" gradientTransform="matrix(0.4144 0.7911 0.5652 -0.2183 -288.3666 -377.9266)" gradientUnits="userSpaceOnUse">
	<stop  offset="0" style="stop-color:#FFFA73"/>
	<stop  offset="0.6364" style="stop-color:#E3BB00"/>
	<stop  offset="1" style="stop-color:#94C11C"/>
</radialGradient>
<path fill="url(#SVGID_1_)" d="M18.705,11.135c-0.404,4.034-3.538,7.198-8.38,7.329C8,18.333,4.037,17.174,2.333,12
	c-1.11-3.373,0.023-6.471,3.78-7.194c0.583-0.112,3.699,0.792,4.312,0.703c1.293-0.186,1.639-1.926,4.053-1.703
	C18.246,4.153,19.049,7.693,18.705,11.135z"/>
<path fill="#448423" d="M10.46,5.851c0,0-2.24,0.316-3.633-0.898c-1.393-1.214-1.411-3.5-1.411-3.5s2.24-0.315,3.634,0.897
	C10.443,3.566,10.46,5.851,10.46,5.851z"/>
<line fill="none" stroke="#448423" stroke-width="1.0652" stroke-miterlimit="10" x1="10.167" y1="6.82" x2="11.167" y2="1.43"/>
</svg>
