<svg version="1.1" viewBox="0 0 256 256" xmlns="http://www.w3.org/2000/svg"><g transform="translate(0,-824)"><g transform="matrix(1.3496 0 0 1.3496 -294.56 579.53)" stroke-linecap="round" stroke-width="1px"><g><path d="m373.65 301.31 3.612-11.515-3.9484 14.901-3.612 11.515z" fill="#21000b"/><path d="m256.48 315.99-3.9484-11.53-3.6119-14.916 3.9483 11.53z" fill="#3a0010"/><path d="m288.14 237.88-14.572 6.2857 9.8935-4.7559 15.271-3.8948z" fill="#21000b"/><path d="m369.7 316.21-7.784 14.092-6.6176 10.299 6.8955-13.097z" fill="#560018"/><path d="m313.09 234.95 11.209-0.0983 5.9706 1.9343-10.995-2.4218z" fill="#21000b"/><path d="m302.19 234.8 10.899 0.1419-5.7801-0.6095-10.694 2.3791z" fill="#21000b"/><path d="m264.26 327.31 6.6176 13.124-6.8955-10.326-7.5061-14.122z" fill="#a00029"/><path d="m365.38 253.63 7.898 11.734 2.6092 9.9873-6.8725-13.211z" fill="#b0002b"/><path d="m313.09 234.95 6.1846-0.5858 0.1395 1.7625-6.1052-1.9421z" fill="#21000b"/><path d="m307.31 234.34 5.7801 0.6095 0.2189-0.7654-5.7109 1.9187z" fill="#21000b"/><path d="m346.26 351.79-7.7876 7.4673 7.9747-9.3506 8.8524-9.306z" fill="#a00029"/><path d="m261.09 253.43-3.2845 8.4963-7.1678 13.183 2.2657-9.9777z" fill="#b20029"/><path d="m279.73 351.66-8.8524-11.225 9.0395 9.3413 7.7876 9.3817z" fill="#b0002b"/><path d="m313.09 370.82 8.392-1.4211 8.0708-3.4354-8.7545 3.8868z" fill="#7c0020"/><path d="m304.7 369.37 8.3921 1.4542-7.7983-1.0003-8.7566-3.9214z" fill="#970026"/><path d="m338.47 359.26-8.9194 6.7056-8.0708 3.4354 8.1628-4.3616z" fill="#b00028"/><path d="m296.54 365.9-8.8273-6.7406 8.9194 5.8144 8.0707 4.3937z" fill="#b20029"/><path d="m373.65 301.31-0.9047-14.958 3.1395-10.998 1.3772 14.44z" fill="#b40022"/><path d="m321.48 369.4-8.392 1.4211 7.7982-1.8749 8.7566-3.9078z" fill="#b40022"/><path d="m250.64 275.11 3.4781 11.011-1.2505 14.953-3.9483-11.53z" fill="#b4001d"/><path d="m304.7 369.37-8.0707-4.3937 8.7544 3.9424 7.7084 1.9055z" fill="#b40021"/><path d="m338.51 237.98 5.4104 4.3564-13.653-5.5511-5.9706-1.9343z" fill="#b00028"/><path d="m369.7 316.21-7.5061 11.294 3.4759-14.384 7.9786-11.811z" fill="#b4001d"/><path d="m302.19 234.8-5.5749 1.9115-13.507 5.4975 5.0301-4.3359z" fill="#b00028"/><path d="m357.67 250.92-4.5966-6.6023 12.303 9.3135 3.6347 8.5099z" fill="#b40024"/><path d="m329.65 365.04 7.0377-7.156 9.7644-7.974-7.9747 9.3506z" fill="#b4001d"/><path d="m355.3 340.6-8.8524 9.306 5.8701-11.62 9.8778-10.783z" fill="#b4001c"/><path d="m279.92 349.78 9.85 8.0127 6.857 7.1834-8.9194-5.8144z" fill="#b4001b"/><path d="m261.09 253.43 12.475-9.2645-4.2328 6.5848-11.527 11.176z" fill="#b40021"/><path d="m264.26 327.31-7.784-11.324-3.612-14.916 8.2544 11.843z" fill="#b4001b"/><path d="m327.22 364.18-6.3304 4.7681-7.7982 1.8749 6.0173-2.2622z" fill="#b60016"/><path d="m264.26 327.31 10.058 10.823 5.5986 11.642-9.0395-9.3413z" fill="#b4001a"/><path d="m305.38 368.92-6.1583-4.7928 8.0155 4.4127 5.8512 2.2856z" fill="#b60015"/><path d="m357.67 250.92-13.747-8.589-5.4104-4.3564 14.561 6.3431z" fill="#b40024"/><path d="m329.65 365.04-8.7566 3.9078 6.3304-4.7681 9.4639-6.2957z" fill="#b60012"/><path d="m289.77 357.79 9.4531 6.333 6.1583 4.7928-8.7544-3.9424z" fill="#b60011"/><path d="m273.57 244.16 14.572-6.2857-5.0301 4.3359-13.775 8.5346z" fill="#b40022"/><path d="m313.09 370.82 3.3202-2.5239 6.2312-4.7825-3.5341 5.0442z" fill="#bb000b"/><path d="m309.99 368.28 3.1031 2.5366-5.8512-2.2856-3.3083-5.0577z" fill="#bb000b"/><path d="m316.61 363.15-0.1969 5.1483-3.3202 2.5239 0.1175-2.6203z" fill="#bf000b"/><path d="m309.99 368.28 0.0482-5.1486 3.1724 5.0649-0.1175 2.6203z" fill="#bf000b"/><path d="m330.09 240.99-10.673-4.8657-0.1395-1.7625 10.995 2.4218z" fill="#b40022"/><path d="m307.6 236.1-10.392 4.8242-0.5899-4.2079 10.694-2.3791z" fill="#b40022"/><path d="m369.01 262.14 6.8725 13.211-3.1395 10.998-6.1246-14.248z" fill="#b80010"/><path d="m341.59 348.17 10.726-9.8816-5.8701 11.62-9.7644 7.974z" fill="#bb000d"/><path d="m289.77 357.79-9.85-8.0127-5.5986-11.642 10.798 9.9241z" fill="#bb000b"/><path d="m319.11 368.56 3.5341-5.0442 8.6717-6.803-4.0945 7.4664z" fill="#c10000"/><path d="m313.31 234.18 6.1052 1.9421-5.7215 4.3708-6.0946-4.3942z" fill="#b40020"/><path d="m250.64 275.11 7.1678-13.183 2.7386 9.9704-6.4283 14.224z" fill="#bb000c"/><path d="m307.24 368.54-8.0155-4.4127-3.8532-7.482 8.5604 6.837z" fill="#c10000"/><path d="m336.68 357.88-9.4639 6.2957 4.0945-7.4664 10.278-8.5415z" fill="#bf000b"/><path d="m365.67 313.12-3.4759 14.384-9.8778 10.783 2.7279-13.346z" fill="#bb000b"/><path d="m289.77 357.79-4.6504-9.7311 10.25 8.5821 3.8532 7.482z" fill="#c10000"/><path d="m365.67 313.12-0.8371-14.967 7.911-11.802 0.9047 14.958z" fill="#bb000b"/><path d="m271.92 324.78 2.4022 13.356-10.058-10.823-3.1416-14.397z" fill="#bd000b"/><path d="m254.12 286.12 8.1887 11.834-1.1848 14.963-8.2544-11.843z" fill="#bd000b"/><path d="m316.61 363.15 6.5527-7.2263-0.5184 7.5921-6.2312 4.7825z" fill="#c61300"/><path d="m309.99 368.28-6.0564-4.8067-0.2536-7.5937 6.3582 7.2518z" fill="#c61300"/><path d="m316.61 363.15-3.3996 5.0519-3.1724-5.0649 3.4103-7.504z" fill="#c61700"/><path d="m357.67 250.92 11.341 11.221-2.3916 9.9603-10.516-12.75z" fill="#bd000b"/><path d="m330.09 240.99 0.182-4.2064 13.653 5.5511-0.7816 6.4833z" fill="#b80011"/><path d="m284.28 248.7-1.1669-6.4871 13.507-5.4975 0.5899 4.2079z" fill="#b80010"/><path d="m271.27 259.19-10.718 12.708-2.7386-9.9704 11.527-11.176z" fill="#bf000b"/><path d="m355.05 324.94-2.7279 13.346-10.726 9.8816 1.9031-11.818z" fill="#c40b00"/><path d="m323.16 355.92 9.2712-9.0799-1.1179 9.869-8.6717 6.803z" fill="#c81700"/><path d="m303.93 363.48-8.5604-6.837-0.8304-9.8729 9.1372 9.1162z" fill="#c81b00"/><path d="m283.53 336.23 1.594 11.824-10.798-9.9241-2.4022-13.356z" fill="#c40b00"/><path d="m343.92 242.33 13.747 8.589-1.5667 8.4317-12.962-10.537z" fill="#bd000b"/><path d="m332.43 346.84 11.063-10.49-1.9031 11.818-10.278 8.5415z" fill="#c61400"/><path d="m271.27 259.19-1.9304-8.4386 13.775-8.5346 1.1669 6.4871z" fill="#bf000b"/><path d="m294.54 346.77 0.8304 9.8729-10.25-8.5821-1.594-11.824z" fill="#c61600"/><path d="m366.62 272.1 6.1246 14.248-7.911 11.802-5.7795-14.785z" fill="#c40b00"/><path d="m353.86 310.51 10.971-12.358 0.8371 14.967-10.626 11.821z" fill="#c40b00"/><path d="m316.61 363.15-3.1617-7.517 6.7921-9.522 2.9223 9.8127z" fill="#cc2800"/><path d="m313.45 355.63-3.4103 7.504-6.3582-7.2518 3.197-9.8006z" fill="#cc2a00"/><path d="m319.42 236.12 10.673 4.8657-5.9609 6.6665-10.434-7.1614z" fill="#bd000b"/><path d="m297.21 240.92 10.392-4.8242 6.0946 4.3942-10.179 7.1207z" fill="#bd000b"/><path d="m271.92 324.78-10.798-11.863 1.1848-14.963 11.137 12.401z" fill="#c40c00"/><path d="m268.4 283.19-6.089 14.762-8.1887-11.834 6.4283-14.224z" fill="#c60c00"/><path d="m330.01 335.06 2.4214 11.787-9.2712 9.0799-2.9223-9.8127z" fill="#cf3100"/><path d="m294.54 346.77 2.7227-11.777 9.6115 11.092-3.197 9.8006z" fill="#cf3100"/><path d="m341.68 323 12.183-12.493 1.1823 14.43-11.551 11.41z" fill="#c81c00"/><path d="m285.67 322.89-2.1386 13.34-11.606-11.456 1.524-14.425z" fill="#c82100"/><path d="m349.04 269.56 7.0689-10.201 10.516 12.75-7.5659 11.265z" fill="#c81b00"/><path d="m330.01 335.06 11.67-12.05 1.8144 13.347-11.063 10.49z" fill="#cc2a00"/><path d="m313.45 355.63-6.5715-9.5484 6.8071-11.513 6.5565 11.539z" fill="#d13d00"/><path d="m297.26 334.99-2.7227 11.777-11.014-10.534 2.1386-13.34z" fill="#cc2e00"/><path d="m330.09 240.99 13.054 7.828-6.4618 8.6409-12.553-9.8024z" fill="#c60e00"/><path d="m260.55 271.89 10.718-12.708 7.3661 10.23-10.235 13.774z" fill="#c82000"/><path d="m291.06 257.37-6.782-8.6671 12.93-7.7767 6.3078 6.6907z" fill="#c61000"/><path d="m359.06 283.37 5.7795 14.785-10.971 12.358-5.7795-14.785z" fill="#c82400"/><path d="m343.14 248.82 12.962 10.537-7.0689 10.201-12.355-12.098z" fill="#c82000"/><path d="m262.31 297.95 6.089-14.762 11.137 12.401-6.089 14.762z" fill="#ca2600"/><path d="m278.63 269.42-7.3661-10.23 13.011-10.486 6.782 8.6671z" fill="#c82100"/><path d="m324.13 247.66-10.194 9.1116-10.419-9.1523 10.179-7.1207z" fill="#c81600"/><path d="m323.7 321.93 6.3072 13.129-9.7721 11.054-6.5565-11.539z" fill="#d34200"/><path d="m297.26 334.99 6.5863-13.104 9.8323 12.683-6.8071 11.513z" fill="#d34200"/><path d="m341.68 323-5.9941-14.23 12.398-13.049 5.7795 14.785z" fill="#d13400"/><path d="m291.96 308.69-6.2941 14.205-12.221-12.541 6.089-14.762z" fill="#d13800"/><path d="m335.69 308.78 5.9941 14.23-11.67 12.05-6.3072-13.129z" fill="#d33f00"/><path d="m285.67 322.89 6.2941-14.205 11.89 13.198-6.5863 13.104z" fill="#d34200"/><path d="m348.08 295.73-9.8047-14.37 10.756-11.802 10.019 13.814z" fill="#d13800"/><path d="m289.56 281.26-10.03 14.331-11.137-12.401 10.235-13.774z" fill="#d13d00"/><path d="m324.13 247.66 12.553 9.8024-10.443 10.702-12.304-11.392z" fill="#d13500"/><path d="m291.06 257.37 12.456-9.7531 10.419 9.1523-12.235 11.344z" fill="#d13500"/><path d="m313.68 334.57-9.8323-12.683 10.034-13.766 9.8198 13.805z" fill="#d54e00"/><path d="m349.04 269.56-10.756 11.802-12.042-13.198 10.443-10.702z" fill="#d34200"/><path d="m291.06 257.37 10.64 10.743-12.135 13.15-10.932-11.845z" fill="#d34200"/><path d="m325.95 294.4 12.33-13.04 9.8047 14.37-12.398 13.049z" fill="#d54d00"/><path d="m291.96 308.69-12.426-13.098 10.03-14.331 12.36 13.088z" fill="#d54e00"/><path d="m335.69 308.78-11.983 13.15-9.8198-13.805 12.066-13.725z" fill="#d55000"/><path d="m301.92 294.35 11.96 13.772-10.034 13.766-11.89-13.198z" fill="#d85100"/><path d="m301.7 268.11 12.235-11.344 12.304 11.392-12.248 12.465z" fill="#d85100"/><path d="m325.95 294.4-11.96-13.772 12.248-12.465 12.042 13.198z" fill="#d85400"/><path d="m313.99 280.62-12.065 13.725-12.36-13.088 12.135-13.15z" fill="#d85700"/><path d="m313.99 280.62 11.96 13.772-12.066 13.725-11.96-13.772z" fill="#d85a00"/></g><g transform="translate(.0858 -.5482)"><path d="m312.42 215.65 11.329-27.261 6.9959 26.783-11.557 19.741z" fill="#39cd1a"/><path d="m306.07 234.88-11.87-19.787 6.6084-26.756 11.614 27.306z" fill="#39cc1a"/><path d="m346.41 213.73-15.029 20.49-0.6387-19.057 14.413-27.991z" fill="#30ad16"/><path d="m279.65 187.05 14.552 28.048-0.1848 19.055-15.192-20.55z" fill="#2faa16"/><path d="m306.07 234.88 6.353-19.237 6.7684 19.263-6.3417 10.219z" fill="#2ea415"/><path d="m319.51 244.95-0.3168-10.046 11.557-19.741 0.6387 19.057z" fill="#2a9713"/><path d="m306.07 234.88 0.1582 10.045-12.213-10.778 0.1848-19.055z" fill="#2a9513"/><path d="m361.78 184.9-4.7649 26.669-16.22 21.367 5.6154-19.2z" fill="#1f700e"/><path d="m268.65 211.39-5.1704-26.689 15.34 28.897 6.0385 19.223z" fill="#1e6b0e"/><path d="m325.19 244.44 6.1966-10.211 15.029-20.49-5.6154 19.2z" fill="#1f6f0e"/><path d="m278.82 213.6 15.192 20.55 6.6362 10.236-15.79-11.563z" fill="#1e6b0e"/><path d="m319.51 244.95-6.4155 0.5572-0.243-0.3841 6.3417-10.219z" fill="#144709"/><path d="m306.07 234.88 6.7797 10.245 0.243 0.3841-6.8645-0.5834z" fill="#144609"/><path d="m329.03 243.65 11.77-10.715 16.22-21.367-11.025 19.668z" fill="#0e3307"/><path d="m360.92 209-14.928 22.236 11.025-19.668 13.935-29.651z" fill="#091f04"/><path d="m325.19 244.44-12.097 1.0761 6.4155-0.5572 11.878-10.73z" fill="#103807"/><path d="m294.01 234.15 12.213 10.778 6.8645 0.5834-12.441-1.1246z" fill="#0f3607"/><path d="m296.97 243.59-16.963-12.481-11.352-19.712 16.208 21.431z" fill="#0d2e06"/><path d="m268.65 211.39 11.352 19.712-14.744-22.295-10.353-27.124z" fill="#071903"/><path d="m329.03 243.65-15.938 1.862 12.097-1.0761 15.61-11.501z" fill="#081b03"/><path d="m284.86 232.82 15.79 11.563 12.441 1.1246-16.124-1.9253z" fill="#071903"/></g></g></g></svg>
