<?xml version="1.0" encoding="utf-8"?>
<!-- Generator: Adobe Illustrator 22.1.0, SVG Export Plug-In . SVG Version: 6.00 Build 0)  -->
<svg version="1.1" id="icons" xmlns="http://www.w3.org/2000/svg" xmlns:xlink="http://www.w3.org/1999/xlink" x="0px" y="0px"
	 viewBox="0 0 38.6 36.9" style="enable-background:new 0 0 38.6 36.9;" xml:space="preserve">
<style type="text/css">
	.st0{fill:#79CBC1;}
</style>
<g>
	<path class="st0" d="M4.6,8.6L4.6,8.6C1.8,8.6,0,6.7,0,4.3C0,1.9,1.9,0,4.7,0c2.8,0,4.6,1.9,4.6,4.3C9.3,6.7,7.5,8.6,4.6,8.6z
		 M8.8,36.9H0.5V12h8.3V36.9z M38.6,36.9h-8.3V23.6c0-3.3-1.2-5.6-4.2-5.6c-2.3,0-3.6,1.5-4.2,3c-0.2,0.6-0.3,1.3-0.3,2v13.9h-8.3
		c0.1-22.5,0-24.9,0-24.9h8.3v3.6h-0.1c1.1-1.7,3-4.2,7.5-4.2c5.4,0,9.5,3.6,9.5,11.2V36.9z"/>
</g>
</svg>
