<?xml version="1.0" encoding="utf-8"?>
<!-- Generator: Adobe Illustrator 22.1.0, SVG Export Plug-In . SVG Version: 6.00 Build 0)  -->
<svg version="1.1" id="icons" xmlns="http://www.w3.org/2000/svg" xmlns:xlink="http://www.w3.org/1999/xlink" x="0px" y="0px"
	 viewBox="0 0 39.6 32.1" style="enable-background:new 0 0 39.6 32.1;" xml:space="preserve">
<style type="text/css">
	.st0{fill:#79CBC1;}
</style>
<g>
	<path class="st0" d="M35.5,8c0,0.4,0,0.7,0,1.1c0,10.7-8.2,23.1-23.1,23.1c-4.6,0-8.9-1.3-12.5-3.6c0.7,0.1,1.3,0.1,2,0.1
		c3.8,0,7.3-1.3,10.1-3.5c-3.6-0.1-6.6-2.4-7.6-5.6c0.5,0.1,1,0.1,1.5,0.1c0.7,0,1.5-0.1,2.1-0.3c-3.7-0.8-6.5-4-6.5-8
		c0,0,0-0.1,0-0.1c1.1,0.6,2.3,1,3.7,1c-2.2-1.5-3.6-3.9-3.6-6.8c0-1.5,0.4-2.9,1.1-4.1c4,4.9,10,8.1,16.7,8.5
		c-0.1-0.6-0.2-1.2-0.2-1.9c0-4.5,3.6-8.1,8.1-8.1c2.3,0,4.4,1,5.9,2.6c1.8-0.4,3.6-1,5.1-2c-0.6,1.9-1.9,3.5-3.6,4.5
		c1.6-0.2,3.2-0.6,4.7-1.3C38.5,5.4,37.1,6.9,35.5,8z"/>
</g>
</svg>
