<svg xmlns="http://www.w3.org/2000/svg" viewBox="0 0 37.7 37.7"><path d="M24.1 0L21 1.8h-3.1c2.2 1.4 3.4 4.1 3.4 6.7 0 6-5.1 6.5-5.1 9.5 0 2.9 6.8 4.1 6.8 10.4 0 2.6-1.2 4.7-3.2 6.4-2.6 2.2-6.2 3-9.5 3C6.1 37.7 0 35.9 0 30.6c0-1.1.4-2.1.8-3.1 2-4.1 8.3-5.1 12.4-5.2-.7-1-1.5-2.1-1.5-3.4 0-.7.3-1.2.5-1.9-.5.1-1.1.1-1.6.1-4.4 0-8.2-3.2-8.2-7.8 0-4.3 3.3-8 7.5-8.9 1.4-.2 2.8-.4 4.3-.4h9.9zm-9.5 23.8h-1.1c-3.7 0-9.2 1.2-9.2 5.9 0 4.4 4.9 6 8.5 6 3.4 0 7.1-1.4 7.1-5.3 0-3.3-3-5-5.3-6.6zM11.1 1.6c-3 0-4.4 2.6-4.4 5.3 0 3.4 2.3 8.8 6.3 8.8 3.1 0 4.2-2.2 4.2-5-.1-3.4-1.9-9.1-6.1-9.1zm26.6 7.1h-5.8v5.8H29V8.7h-5.8V5.8H29V0h2.9v5.8h5.8v2.9z" fill="#79cbc1"/></svg>